<svg width="361.1" height="75.601" viewBox="0 0 361.1 75.601" xmlns="http://www.w3.org/2000/svg"><g id="svgGroup" stroke-linecap="round" fill-rule="evenodd" font-size="9pt" stroke="#000" stroke-width="0.25mm" fill="#a9ffcb" style="stroke:#000;stroke-width:0.25mm;fill:#a9ffcb"><path d="M 181.9 3.101 Q 190 17.701 190 34.401 A 61.938 61.938 0 0 1 183.206 62.365 A 75.184 75.184 0 0 1 180.8 66.801 A 12.645 12.645 0 0 1 178.42 69.818 A 9.473 9.473 0 0 1 171.8 72.301 Q 165.5 72.301 163.1 65.001 A 43.569 43.569 0 0 1 161.901 60.622 A 53.841 53.841 0 0 1 161.35 57.751 A 736.435 736.435 0 0 0 161.122 56.373 Q 160.663 53.613 160.5 52.801 A 27.337 27.337 0 0 0 160.09 53.666 Q 159.448 55.074 158.359 57.717 A 351.71 351.71 0 0 0 157.65 59.451 Q 155.961 63.613 154.713 66.111 A 36.577 36.577 0 0 1 154.2 67.101 A 9.788 9.788 0 0 1 152.877 69.131 A 5.926 5.926 0 0 1 148.2 71.301 Q 145.3 71.301 143 69.101 A 5.804 5.804 0 0 1 141.996 67.578 Q 141.237 65.98 140.844 63.39 A 32.673 32.673 0 0 1 140.6 61.301 Q 140.5 59.401 140.35 57.801 Q 140.2 56.201 140.2 54.801 A 16.492 16.492 0 0 1 140.242 53.666 Q 140.313 52.651 140.5 51.401 A 93.046 93.046 0 0 1 140.968 48.571 A 80.244 80.244 0 0 1 141.15 47.601 A 27.424 27.424 0 0 1 141.476 46.152 Q 141.638 45.508 141.844 44.795 A 55.246 55.246 0 0 1 142.3 43.301 Q 143.1 40.801 143.7 39.051 Q 144.3 37.301 145.45 34.501 Q 146.331 32.357 146.889 31.005 A 840.992 840.992 0 0 1 147.2 30.251 Q 147.798 28.807 149.138 25.926 A 374.073 374.073 0 0 1 149.15 25.901 A 1475.532 1475.532 0 0 0 149.754 24.602 Q 150.418 23.172 150.796 22.348 A 151.27 151.27 0 0 0 151 21.901 A 90.801 90.801 0 0 1 152.074 19.449 Q 152.745 17.972 153.546 16.329 A 166.084 166.084 0 0 1 154.3 14.801 A 42.005 42.005 0 0 1 148.225 20.171 A 31.135 31.135 0 0 1 140.4 24.301 Q 138.3 25.001 136.15 25.001 A 4.377 4.377 0 0 1 134.349 24.64 Q 133.401 24.217 132.7 23.301 A 5.701 5.701 0 0 1 131.8 21.509 Q 131.551 20.706 131.457 19.736 A 12.829 12.829 0 0 1 131.4 18.501 Q 131.4 15.589 134.797 12.236 A 23.233 23.233 0 0 1 135.25 11.801 Q 139.1 8.201 143.9 6.101 A 29.583 29.583 0 0 1 147.367 4.821 Q 149.233 4.27 150.931 4.089 A 15.291 15.291 0 0 1 152.55 4.001 A 11.6 11.6 0 0 1 159.011 5.984 A 14.557 14.557 0 0 1 159.75 6.501 Q 163.041 8.956 163.099 12.955 A 9.933 9.933 0 0 1 163.1 13.101 Q 163.1 14.252 162.423 16.344 A 34.032 34.032 0 0 1 161.95 17.701 Q 160.8 20.801 157.5 28.901 Q 150.3 46.801 147.9 57.101 A 6.677 6.677 0 0 0 147.72 58.177 A 5.82 5.82 0 0 0 147.7 58.651 Q 147.7 59.289 148.207 59.384 A 1.048 1.048 0 0 0 148.4 59.401 A 2.16 2.16 0 0 0 149.801 58.367 Q 152.526 54.909 157.813 39.886 A 455.346 455.346 0 0 0 160.4 32.301 A 3.838 3.838 0 0 1 159.974 31.627 Q 159.744 31.154 159.707 30.681 A 2.321 2.321 0 0 1 159.7 30.501 A 1.384 1.384 0 0 1 159.701 30.47 Q 159.726 29.296 161.759 29.208 A 7.918 7.918 0 0 1 162.1 29.201 A 188.77 188.77 0 0 1 164.221 29.212 Q 166.84 29.241 168.185 29.35 A 14.501 14.501 0 0 1 168.7 29.401 A 4.988 4.988 0 0 1 169.278 29.5 Q 169.891 29.647 170.169 29.932 A 0.785 0.785 0 0 1 170.4 30.501 A 1.849 1.849 0 0 1 170.293 31.143 A 1.6 1.6 0 0 1 169.7 31.901 A 588.067 588.067 0 0 0 169.272 36.651 Q 168.718 43.1 168.621 46.357 A 42.094 42.094 0 0 0 168.6 47.601 Q 168.6 51.601 169.4 57.901 A 36.842 36.842 0 0 0 169.702 59.88 Q 170.233 62.782 171.042 63.735 A 1.129 1.129 0 0 0 171.9 64.201 A 1.533 1.533 0 0 0 172.838 63.839 Q 173.771 63.12 174.704 60.968 A 21.057 21.057 0 0 0 174.9 60.501 Q 181.6 45.801 181.6 31.651 Q 181.6 17.501 174.2 5.501 Q 173.261 4.135 173.124 2.842 A 4.172 4.172 0 0 1 173.1 2.401 Q 173.1 0.001 176.6 0.001 A 6.221 6.221 0 0 1 179.119 0.493 Q 180.526 1.108 181.51 2.493 A 7.864 7.864 0 0 1 181.9 3.101 Z M 0.4 16.701 L 0 12.801 A 2.434 2.434 0 0 1 0.182 11.843 Q 0.414 11.295 0.943 10.908 A 2.947 2.947 0 0 1 1.1 10.801 A 32.765 32.765 0 0 1 5.804 8.237 Q 8.319 7.103 11.378 6.119 A 80.576 80.576 0 0 1 17.2 4.501 Q 20.022 3.91 22.198 3.707 A 22.748 22.748 0 0 1 24.3 3.601 A 18.719 18.719 0 0 1 40.16 11.919 Q 42.856 15.631 44.8 21.001 Q 47 27.201 47 34.101 Q 47 44.501 41.5 55.101 A 111.89 111.89 0 0 1 37.333 62.474 Q 35.031 66.191 32.679 69.218 A 57.123 57.123 0 0 1 30.2 72.201 A 13.279 13.279 0 0 1 28.057 74.066 Q 25.819 75.601 23.4 75.601 Q 19.8 75.601 17.8 72.801 A 10.32 10.32 0 0 1 16.17 69.103 Q 15.835 67.668 15.803 65.999 A 18.52 18.52 0 0 1 15.8 65.651 A 28.194 28.194 0 0 1 16.152 61.342 Q 16.476 59.252 17.097 56.966 A 49.38 49.38 0 0 1 17.4 55.901 A 17.369 17.369 0 0 1 18.41 53.247 Q 19.93 50.118 22.4 49.101 A 22.265 22.265 0 0 0 21.918 53.003 A 25.314 25.314 0 0 0 21.9 53.951 A 9.58 9.58 0 0 0 22.126 55.932 Q 22.529 57.83 23.65 60.201 A 11.849 11.849 0 0 0 24.491 61.71 Q 25.627 63.412 26.995 63.792 A 2.995 2.995 0 0 0 27.8 63.901 A 3.767 3.767 0 0 0 30.584 62.673 Q 31.079 62.164 31.507 61.444 A 8.974 8.974 0 0 0 31.7 61.101 A 49.76 49.76 0 0 0 37.603 41.715 A 61.626 61.626 0 0 0 37.9 35.601 A 50.435 50.435 0 0 0 37.411 28.291 Q 36.093 19.322 31.217 15.149 A 13.779 13.779 0 0 0 29 13.601 A 12.822 12.822 0 0 0 26.773 12.647 A 9.216 9.216 0 0 0 24 12.201 A 9.582 9.582 0 0 0 21.541 12.54 Q 20.475 12.823 19.341 13.342 A 17.445 17.445 0 0 0 18.8 13.601 A 41.066 41.066 0 0 1 19.28 17.062 Q 19.6 20.306 19.6 24.451 Q 19.6 29.389 18.321 38.76 A 336.043 336.043 0 0 1 17.35 45.351 Q 15.1 59.701 15.1 67.201 L 15.1 70.401 A 8.78 8.78 0 0 1 15.034 71.521 Q 14.819 73.188 13.9 73.801 A 4.871 4.871 0 0 1 12.617 74.419 A 4.154 4.154 0 0 1 11.4 74.601 A 2.482 2.482 0 0 1 9.457 73.471 Q 7.797 71.343 6.781 65.203 A 79.469 79.469 0 0 1 6.2 60.901 A 251.445 251.445 0 0 0 5.93 58.52 Q 5.581 55.582 5.312 54.077 A 19.537 19.537 0 0 0 5.2 53.501 A 1.487 1.487 0 0 1 5.405 53.45 Q 5.617 53.412 5.92 53.403 A 6.387 6.387 0 0 1 6.1 53.401 A 3.196 3.196 0 0 1 7.377 53.694 Q 8.706 54.274 10.3 56.001 L 10.3 53.401 Q 10.208 46.1 12.08 27.697 A 886.921 886.921 0 0 1 12.4 24.601 Q 12.493 23.859 12.5 21.958 A 86.201 86.201 0 0 0 12.5 21.651 A 25.363 25.363 0 0 0 12.236 18.058 A 28.835 28.835 0 0 0 12.1 17.201 Q 11.4 17.601 9.3 19.301 Q 5.031 22.786 2.925 23.234 A 2.773 2.773 0 0 1 2.35 23.301 Q 0.411 23.301 0.306 20.168 A 11.014 11.014 0 0 1 0.3 19.801 L 0.4 16.701 Z M 269.2 27.401 L 274 27.001 A 7.743 7.743 0 0 1 277.232 27.748 Q 279.088 28.594 281 30.401 Q 282.132 31.473 282.59 32.51 A 3.425 3.425 0 0 1 282.9 33.901 A 13.747 13.747 0 0 1 282.714 35.724 Q 282.054 40.121 279.06 52.801 A 1138.965 1138.965 0 0 1 277.6 58.901 A 11.367 11.367 0 0 0 277.464 59.737 Q 277.41 60.17 277.402 60.559 A 6.613 6.613 0 0 0 277.4 60.701 Q 277.4 61.501 277.8 61.501 A 0.595 0.595 0 0 0 278.027 61.446 Q 278.422 61.279 279.1 60.601 Q 282.191 56.737 283.509 52.967 A 19.255 19.255 0 0 0 283.6 52.701 A 1740.75 1740.75 0 0 0 284.206 50.879 Q 285.03 48.4 285.478 47.018 A 233.491 233.491 0 0 0 285.5 46.951 Q 286.1 45.101 286.6 41.701 A 3220.427 3220.427 0 0 0 286.831 40.126 Q 287.15 37.951 287.3 36.901 A 32.683 32.683 0 0 0 287.43 35.963 Q 287.725 33.644 288.299 27.741 A 1108.458 1108.458 0 0 0 288.4 26.701 A 6.711 6.711 0 0 1 288.532 26.055 Q 288.86 24.801 289.55 24.801 Q 290.342 24.801 290.657 26.103 A 5.12 5.12 0 0 1 290.7 26.301 Q 292.8 37.701 292.8 49.501 A 42.128 42.128 0 0 1 291.785 58.977 A 31.343 31.343 0 0 1 287.3 69.501 A 13.937 13.937 0 0 1 285.756 71.528 Q 284.806 72.547 283.775 73.129 A 5.765 5.765 0 0 1 280.9 73.901 Q 279.4 73.901 278 73.101 A 11.763 11.763 0 0 1 273.66 69.604 A 16.768 16.768 0 0 1 271.8 66.601 A 22.841 22.841 0 0 1 269.895 61.093 A 19.554 19.554 0 0 1 269.5 57.201 Q 269.5 53.901 270.25 51.251 Q 271 48.601 271.7 46.301 A 81.704 81.704 0 0 0 272.074 45.044 Q 272.622 43.143 272.756 42.237 A 3.435 3.435 0 0 0 272.8 41.751 Q 272.8 40.801 270.95 40.001 A 6.362 6.362 0 0 1 269.921 39.447 Q 269.366 39.074 269.004 38.619 A 3.107 3.107 0 0 1 268.55 37.851 A 13.184 13.184 0 0 1 268.268 37.075 Q 267.883 35.927 267.345 33.885 A 137.407 137.407 0 0 1 267 32.551 A 151.154 151.154 0 0 1 266.66 31.184 Q 266.082 28.804 266.01 28.074 A 1.829 1.829 0 0 1 266 27.901 A 1.008 1.008 0 0 1 266.035 27.624 Q 266.124 27.313 266.441 27.231 A 1.031 1.031 0 0 1 266.7 27.201 L 269.2 27.401 Z M 77.923 66.162 A 21.554 21.554 0 0 0 78.7 60.101 A 35.818 35.818 0 0 0 78.678 58.907 Q 78.606 56.769 78.3 53.401 Q 75.656 56.663 72.997 58.992 A 28.88 28.88 0 0 1 68.85 62.051 A 19.384 19.384 0 0 1 62.673 64.393 A 27.045 27.045 0 0 1 57.3 64.901 A 6.04 6.04 0 0 1 55.782 64.726 Q 53.2 64.054 53.2 60.801 A 7.153 7.153 0 0 1 53.251 59.962 Q 53.342 59.191 53.596 58.339 A 14.468 14.468 0 0 1 54.2 56.701 L 55.15 54.801 A 11.687 11.687 0 0 1 55.177 54.747 Q 55.532 54.047 56.35 52.651 A 354.699 354.699 0 0 0 56.443 52.492 Q 57.105 51.362 57.264 51.07 A 2.437 2.437 0 0 0 57.3 51.001 A 19.357 19.357 0 0 0 57.497 51.554 Q 58.365 53.876 59.534 55.062 A 3.788 3.788 0 0 0 62.3 56.301 Q 65.772 56.301 71.299 50.324 A 68.293 68.293 0 0 0 74.4 46.701 Q 78.5 41.601 78.5 38.651 Q 78.5 36.715 77.402 34.843 A 11.689 11.689 0 0 0 75.95 32.901 Q 74.506 31.315 73.11 30.627 A 4.747 4.747 0 0 0 71 30.101 Q 68.6 30.101 65.6 31.901 A 44.417 44.417 0 0 0 65.507 31.957 Q 62.567 33.73 60.5 35.601 A 2.714 2.714 0 0 0 60.28 35.072 Q 59.848 34.301 59 34.301 A 1.428 1.428 0 0 0 58.247 34.509 Q 57.14 35.18 56.699 38.002 A 22.08 22.08 0 0 0 56.5 39.801 A 41.868 41.868 0 0 0 53.991 43.013 A 51.462 51.462 0 0 0 50.65 48.451 A 39.924 39.924 0 0 0 49.899 49.923 Q 48.697 52.412 48.256 54.326 A 9.083 9.083 0 0 0 48 56.351 A 21.159 21.159 0 0 0 48.021 57.287 A 18.394 18.394 0 0 0 48.8 61.901 A 56.273 56.273 0 0 0 48.891 62.178 Q 50.299 66.456 52.011 69.318 A 17.446 17.446 0 0 0 53.95 72.001 A 8.603 8.603 0 0 0 56.56 73.968 Q 58.001 74.686 59.846 75.017 A 19.6 19.6 0 0 0 63.3 75.301 A 22.99 22.99 0 0 0 68.991 74.656 Q 75.954 72.873 77.923 66.162 Z M 222.423 66.162 A 21.554 21.554 0 0 0 223.2 60.101 A 35.818 35.818 0 0 0 223.178 58.907 Q 223.106 56.769 222.8 53.401 Q 220.156 56.663 217.497 58.992 A 28.88 28.88 0 0 1 213.35 62.051 A 19.384 19.384 0 0 1 207.173 64.393 A 27.045 27.045 0 0 1 201.8 64.901 A 6.04 6.04 0 0 1 200.282 64.726 Q 197.7 64.054 197.7 60.801 A 7.153 7.153 0 0 1 197.751 59.962 Q 197.842 59.191 198.096 58.339 A 14.468 14.468 0 0 1 198.7 56.701 L 199.65 54.801 A 11.687 11.687 0 0 1 199.677 54.747 Q 200.032 54.047 200.85 52.651 A 354.699 354.699 0 0 0 200.943 52.492 Q 201.605 51.362 201.764 51.07 A 2.437 2.437 0 0 0 201.8 51.001 A 19.357 19.357 0 0 0 201.997 51.554 Q 202.865 53.876 204.034 55.062 A 3.788 3.788 0 0 0 206.8 56.301 Q 210.272 56.301 215.799 50.324 A 68.293 68.293 0 0 0 218.9 46.701 Q 223 41.601 223 38.651 Q 223 36.715 221.902 34.843 A 11.689 11.689 0 0 0 220.45 32.901 Q 219.006 31.315 217.61 30.627 A 4.747 4.747 0 0 0 215.5 30.101 Q 213.1 30.101 210.1 31.901 A 44.417 44.417 0 0 0 210.007 31.957 Q 207.067 33.73 205 35.601 A 2.714 2.714 0 0 0 204.78 35.072 Q 204.348 34.301 203.5 34.301 A 1.428 1.428 0 0 0 202.747 34.509 Q 201.64 35.18 201.199 38.002 A 22.08 22.08 0 0 0 201 39.801 A 41.868 41.868 0 0 0 198.491 43.013 A 51.462 51.462 0 0 0 195.15 48.451 A 39.924 39.924 0 0 0 194.399 49.923 Q 193.197 52.412 192.756 54.326 A 9.083 9.083 0 0 0 192.5 56.351 A 21.159 21.159 0 0 0 192.521 57.287 A 18.394 18.394 0 0 0 193.3 61.901 A 56.273 56.273 0 0 0 193.391 62.178 Q 194.799 66.456 196.511 69.318 A 17.446 17.446 0 0 0 198.45 72.001 A 8.603 8.603 0 0 0 201.06 73.968 Q 202.501 74.686 204.346 75.017 A 19.6 19.6 0 0 0 207.8 75.301 A 22.99 22.99 0 0 0 213.491 74.656 Q 220.454 72.873 222.423 66.162 Z M 325.723 66.162 A 21.554 21.554 0 0 0 326.5 60.101 A 35.818 35.818 0 0 0 326.478 58.907 Q 326.406 56.769 326.1 53.401 Q 323.456 56.663 320.797 58.992 A 28.88 28.88 0 0 1 316.65 62.051 A 19.384 19.384 0 0 1 310.473 64.393 A 27.045 27.045 0 0 1 305.1 64.901 A 6.04 6.04 0 0 1 303.582 64.726 Q 301 64.054 301 60.801 A 7.153 7.153 0 0 1 301.051 59.962 Q 301.142 59.191 301.396 58.339 A 14.468 14.468 0 0 1 302 56.701 L 302.95 54.801 A 11.687 11.687 0 0 1 302.977 54.747 Q 303.332 54.047 304.15 52.651 A 354.699 354.699 0 0 0 304.243 52.492 Q 304.905 51.362 305.064 51.07 A 2.437 2.437 0 0 0 305.1 51.001 A 19.357 19.357 0 0 0 305.297 51.554 Q 306.165 53.876 307.334 55.062 A 3.788 3.788 0 0 0 310.1 56.301 Q 313.572 56.301 319.099 50.324 A 68.293 68.293 0 0 0 322.2 46.701 Q 326.3 41.601 326.3 38.651 Q 326.3 36.715 325.202 34.843 A 11.689 11.689 0 0 0 323.75 32.901 Q 322.306 31.315 320.91 30.627 A 4.747 4.747 0 0 0 318.8 30.101 Q 316.4 30.101 313.4 31.901 A 44.417 44.417 0 0 0 313.307 31.957 Q 310.367 33.73 308.3 35.601 A 2.714 2.714 0 0 0 308.08 35.072 Q 307.648 34.301 306.8 34.301 A 1.428 1.428 0 0 0 306.047 34.509 Q 304.94 35.18 304.499 38.002 A 22.08 22.08 0 0 0 304.3 39.801 A 41.868 41.868 0 0 0 301.791 43.013 A 51.462 51.462 0 0 0 298.45 48.451 A 39.924 39.924 0 0 0 297.699 49.923 Q 296.497 52.412 296.056 54.326 A 9.083 9.083 0 0 0 295.8 56.351 A 21.159 21.159 0 0 0 295.821 57.287 A 18.394 18.394 0 0 0 296.6 61.901 A 56.273 56.273 0 0 0 296.691 62.178 Q 298.099 66.456 299.811 69.318 A 17.446 17.446 0 0 0 301.75 72.001 A 8.603 8.603 0 0 0 304.36 73.968 Q 305.801 74.686 307.646 75.017 A 19.6 19.6 0 0 0 311.1 75.301 A 22.99 22.99 0 0 0 316.791 74.656 Q 323.754 72.873 325.723 66.162 Z M 267.5 57.501 L 267.3 62.401 A 8.729 8.729 0 0 1 267.08 64.244 Q 266.68 66.079 265.556 68.508 A 40.457 40.457 0 0 1 264.8 70.051 Q 263.373 72.82 261.489 74.008 A 5.679 5.679 0 0 1 258.4 74.901 A 5.799 5.799 0 0 1 256.709 74.666 A 4.482 4.482 0 0 1 254.6 73.301 A 4.711 4.711 0 0 1 254.321 72.991 Q 253.874 72.454 253.168 71.403 A 45.407 45.407 0 0 1 253.1 71.301 A 23.56 23.56 0 0 1 250.308 65.721 Q 249.399 63.137 248.9 60.101 A 116.584 116.584 0 0 1 245.962 65.096 Q 239.894 74.801 236.4 74.801 A 5.232 5.232 0 0 1 233.276 73.728 Q 231.972 72.782 230.8 71.001 A 7.305 7.305 0 0 1 230.376 70.306 Q 229.863 69.362 229.3 67.851 A 21.166 21.166 0 0 0 227.769 64.588 A 19.158 19.158 0 0 0 227.35 63.901 A 6.609 6.609 0 0 1 226.564 62.086 Q 226.2 60.766 226.2 59.051 A 13.295 13.295 0 0 1 226.539 55.994 A 10.944 10.944 0 0 1 227.4 53.601 A 97.965 97.965 0 0 1 232.348 44.881 Q 238.302 35.619 244.7 31.401 A 4.502 4.502 0 0 1 247.326 30.503 A 5.575 5.575 0 0 1 247.5 30.501 A 3.774 3.774 0 0 1 248.636 30.694 Q 249.662 31.02 250.929 31.89 A 16.867 16.867 0 0 1 251.5 32.301 Q 252.682 33.482 253.08 34.379 A 2.725 2.725 0 0 1 253.2 34.701 A 72.957 72.957 0 0 1 253.37 35.466 Q 253.695 36.969 253.7 37.387 A 1.07 1.07 0 0 1 253.7 37.401 A 6.853 6.853 0 0 1 255.313 38.179 Q 257.097 39.381 257.195 41.547 A 5.639 5.639 0 0 1 257.2 41.801 A 15.152 15.152 0 0 1 257.158 42.821 Q 256.982 45.355 256.072 51.285 A 353.167 353.167 0 0 1 256 51.751 Q 254.8 59.501 254.6 63.301 Q 254.6 65.401 256 65.401 Q 257.558 65.401 261.532 60.093 A 73.017 73.017 0 0 0 261.75 59.801 A 167.632 167.632 0 0 1 262.732 58.488 Q 265.975 54.201 266.5 54.201 Q 267.366 54.201 267.482 56.673 A 17.668 17.668 0 0 1 267.5 57.501 Z M 115.2 28.201 L 115.2 29.001 Q 115.11 30.265 114.204 32.183 A 21.037 21.037 0 0 1 114 32.601 Q 108.675 42.09 101.006 53.172 A 359.539 359.539 0 0 1 100.5 53.901 Q 105.889 66.963 106.356 70.263 A 3.925 3.925 0 0 1 106.4 70.801 A 3.419 3.419 0 0 1 106.154 72.107 A 3.239 3.239 0 0 1 105.8 72.751 A 2.216 2.216 0 0 1 105.324 73.252 A 1.74 1.74 0 0 1 104.25 73.601 A 2.252 2.252 0 0 1 102.622 72.922 A 2.9 2.9 0 0 1 102.6 72.901 A 32.414 32.414 0 0 1 99.997 70.012 Q 97.456 66.86 94.7 62.201 A 6.711 6.711 0 0 1 94.601 62.345 Q 94.331 62.726 93.6 63.701 A 44.116 44.116 0 0 0 93.24 64.187 Q 92.768 64.836 92.575 65.164 A 2.387 2.387 0 0 0 92.5 65.301 L 91.8 66.701 A 4.965 4.965 0 0 0 91.407 67.583 Q 91.084 68.519 90.911 69.905 A 20.808 20.808 0 0 0 90.85 70.451 A 9.081 9.081 0 0 1 90.728 71.309 Q 90.396 73.001 89.5 73.001 A 1.558 1.558 0 0 1 88.889 72.844 Q 87.965 72.436 86.387 70.961 A 34.434 34.434 0 0 1 85.55 70.151 Q 83.472 68.073 82.909 65.915 A 6.371 6.371 0 0 1 82.7 64.301 A 9.654 9.654 0 0 1 83.145 61.6 Q 84.374 57.437 89 50.901 A 976.504 976.504 0 0 1 87.524 47.272 Q 82.81 35.615 82.703 34.306 A 0.684 0.684 0 0 1 82.7 34.251 A 4.462 4.462 0 0 1 82.816 33.281 Q 83.02 32.368 83.582 31.237 A 14.444 14.444 0 0 1 83.6 31.201 Q 84.291 29.819 85.099 29.498 A 1.345 1.345 0 0 1 85.6 29.401 Q 86.59 29.401 89.607 33.858 A 81.663 81.663 0 0 1 90.3 34.901 A 194.337 194.337 0 0 1 91.963 37.482 Q 94.25 41.101 95.3 43.201 A 87.936 87.936 0 0 1 96.987 41.451 Q 99.646 38.759 104.4 34.241 A 769.162 769.162 0 0 1 105.55 33.151 Q 111.613 27.413 113.537 26.345 A 1.572 1.572 0 0 1 114.2 26.101 A 0.783 0.783 0 0 1 114.922 26.57 Q 115.124 26.95 115.179 27.639 A 7.054 7.054 0 0 1 115.2 28.201 Z M 360.69 51.029 A 0.354 0.354 0 0 0 360.4 50.801 Q 360.225 50.801 359.055 51.643 A 49.004 49.004 0 0 0 358.7 51.901 Q 356.825 53.626 353.206 56.757 A 738.549 738.549 0 0 1 350.6 59.001 Q 345 63.801 344.2 63.801 Q 343.721 63.801 343.625 63.29 A 1.568 1.568 0 0 1 343.6 63.001 A 0.667 0.667 0 0 1 343.601 62.981 Q 343.624 62.215 345.323 55.973 A 562.961 562.961 0 0 1 345.85 54.051 Q 347.678 47.429 348.318 45.362 A 18.063 18.063 0 0 1 348.55 44.651 A 5.124 5.124 0 0 1 348.875 43.923 A 3.895 3.895 0 0 1 349.9 42.701 A 1.08 1.08 0 0 0 350.036 42.53 Q 350.258 42.192 350.45 41.501 A 4.699 4.699 0 0 0 350.563 40.945 Q 350.7 40.029 350.7 38.401 A 7.725 7.725 0 0 0 350.695 38.124 Q 350.669 37.388 350.5 36.771 A 3.907 3.907 0 0 0 349.5 35.001 Q 346.927 32.648 345.299 32.025 A 2.978 2.978 0 0 0 344.25 31.801 Q 342.5 31.801 341.05 32.901 Q 339.889 33.782 339.465 33.957 A 0.469 0.469 0 0 1 339.3 34.001 Q 338.742 34.001 338.502 33.239 A 3.225 3.225 0 0 1 338.4 32.801 Q 337.8 29.801 335.9 28.751 A 37.849 37.849 0 0 0 335.876 28.737 Q 333.997 27.701 333.5 27.701 A 1.016 1.016 0 0 0 332.935 27.869 Q 332.347 28.252 332 29.501 Q 331.7 30.401 330.1 33.051 A 29.213 29.213 0 0 0 330.051 33.132 Q 328.917 35.024 328.612 36.191 A 3.049 3.049 0 0 0 328.5 36.951 Q 328.5 37.927 329.233 40.277 A 53.483 53.483 0 0 0 329.7 41.701 Q 330.619 44.38 331.274 45.624 A 5.521 5.521 0 0 0 331.65 46.251 A 3.207 3.207 0 0 0 331.882 46.539 A 2.17 2.17 0 0 0 333.55 47.301 A 3.168 3.168 0 0 0 334.73 47.075 A 3.801 3.801 0 0 0 335.7 46.501 Q 338.2 44.301 339.7 42.401 A 27.864 27.864 0 0 1 339.681 42.47 Q 339.364 43.622 338.2 47.501 Q 337 51.501 336.45 54.251 A 26.88 26.88 0 0 0 336.137 56.189 A 31.946 31.946 0 0 0 335.9 60.151 A 10.602 10.602 0 0 0 335.913 60.679 Q 335.994 62.301 336.57 64.015 A 17.616 17.616 0 0 0 337.8 66.801 Q 337.8 66.901 338.5 68.201 A 119.413 119.413 0 0 0 338.588 68.364 Q 339.088 69.288 339.308 69.653 A 3.965 3.965 0 0 0 339.4 69.801 Q 339.556 70.035 339.987 70.727 A 196.784 196.784 0 0 1 340.25 71.151 Q 340.723 71.914 341.089 72.307 A 2.268 2.268 0 0 0 341.35 72.551 Q 341.688 72.813 342.194 73.244 A 55.251 55.251 0 0 1 342.55 73.551 A 4.543 4.543 0 0 0 343.168 74.005 A 3.373 3.373 0 0 0 344.1 74.401 Q 344.9 74.601 346.55 74.601 Q 348.2 74.601 350.9 72.701 Q 351.8 72.001 354.45 68.851 A 45.117 45.117 0 0 0 355.999 66.91 Q 357.485 64.932 358.3 63.301 A 18.628 18.628 0 0 0 360.034 60.092 A 13.375 13.375 0 0 0 361.1 54.951 A 42.215 42.215 0 0 0 361.093 54.168 Q 361.047 51.677 360.69 51.029 Z M 249.8 37.001 A 56.549 56.549 0 0 0 239.563 49.223 A 46.972 46.972 0 0 0 233.8 63.301 Q 242.131 56.125 247.604 42.894 A 91.496 91.496 0 0 0 249.8 37.001 Z M 62.4 48.001 A 2.099 2.099 0 0 0 63.324 47.743 Q 64.554 47.127 66.37 45.034 A 34.497 34.497 0 0 0 67.15 44.101 A 43.957 43.957 0 0 0 68.221 42.724 Q 69.836 40.552 70.197 39.357 A 2.135 2.135 0 0 0 70.3 38.751 A 2.949 2.949 0 0 0 70.259 38.231 Q 70.096 37.327 69.297 37.301 A 1.47 1.47 0 0 0 69.25 37.301 A 1.478 1.478 0 0 0 68.676 37.444 Q 67.798 37.825 66.334 39.225 A 29.775 29.775 0 0 0 65.65 39.901 A 84.589 84.589 0 0 0 63.953 41.679 Q 62.561 43.184 61.6 44.401 Q 61.439 45.371 61.408 45.949 A 4.735 4.735 0 0 0 61.4 46.201 A 4.84 4.84 0 0 0 61.435 46.812 Q 61.518 47.455 61.793 47.75 A 0.792 0.792 0 0 0 62.4 48.001 Z M 206.9 48.001 A 2.099 2.099 0 0 0 207.824 47.743 Q 209.054 47.127 210.87 45.034 A 34.497 34.497 0 0 0 211.65 44.101 A 43.957 43.957 0 0 0 212.721 42.724 Q 214.336 40.552 214.697 39.357 A 2.135 2.135 0 0 0 214.8 38.751 A 2.949 2.949 0 0 0 214.759 38.231 Q 214.596 37.327 213.797 37.301 A 1.47 1.47 0 0 0 213.75 37.301 A 1.478 1.478 0 0 0 213.176 37.444 Q 212.298 37.825 210.834 39.225 A 29.775 29.775 0 0 0 210.15 39.901 A 84.589 84.589 0 0 0 208.453 41.679 Q 207.061 43.184 206.1 44.401 Q 205.939 45.371 205.908 45.949 A 4.735 4.735 0 0 0 205.9 46.201 A 4.84 4.84 0 0 0 205.935 46.812 Q 206.018 47.455 206.293 47.75 A 0.792 0.792 0 0 0 206.9 48.001 Z M 310.2 48.001 A 2.099 2.099 0 0 0 311.124 47.743 Q 312.354 47.127 314.17 45.034 A 34.497 34.497 0 0 0 314.95 44.101 A 43.957 43.957 0 0 0 316.021 42.724 Q 317.636 40.552 317.997 39.357 A 2.135 2.135 0 0 0 318.1 38.751 A 2.949 2.949 0 0 0 318.059 38.231 Q 317.896 37.327 317.097 37.301 A 1.47 1.47 0 0 0 317.05 37.301 A 1.478 1.478 0 0 0 316.476 37.444 Q 315.598 37.825 314.134 39.225 A 29.775 29.775 0 0 0 313.45 39.901 A 84.589 84.589 0 0 0 311.753 41.679 Q 310.361 43.184 309.4 44.401 Q 309.239 45.371 309.208 45.949 A 4.735 4.735 0 0 0 309.2 46.201 A 4.84 4.84 0 0 0 309.235 46.812 Q 309.318 47.455 309.593 47.75 A 0.792 0.792 0 0 0 310.2 48.001 Z M 147.9 8.801 A 27.523 27.523 0 0 0 144.045 9.703 Q 140.169 10.932 137.9 13.201 Q 136.8 14.301 136.8 15.201 Q 136.8 15.984 137.708 16.085 A 2.625 2.625 0 0 0 138 16.101 Q 140.917 16.101 146.411 10.399 A 68.905 68.905 0 0 0 147.9 8.801 Z" vector-effect="non-scaling-stroke"/></g></svg>